<svg xmlns="http://www.w3.org/2000/svg" viewBox="0 0 400 600" width="400" height="600">
<defs>
  <filter id="grain">
    <feTurbulence type="fractalNoise" baseFrequency="0.84" numOctaves="4" seed="9"/>
    <feColorMatrix values="0 0 0 0 0.02  0 0 0 0 0.05  0 0 0 0 0.03  0 0 0 0.52 0"/>
    <feComposite in2="SourceGraphic" operator="in"/>
  </filter>
  <filter id="glow" x="-40%" y="-40%" width="180%" height="180%">
    <feGaussianBlur stdDeviation="8" result="b"/>
    <feMerge><feMergeNode in="b"/><feMergeNode in="SourceGraphic"/></feMerge>
  </filter>
  <filter id="idolglow" x="-60%" y="-60%" width="220%" height="220%">
    <feGaussianBlur stdDeviation="24" result="b"/>
    <feMerge><feMergeNode in="b"/><feMergeNode in="SourceGraphic"/></feMerge>
  </filter>
  <linearGradient id="bg" x1="0" y1="0" x2="0" y2="1">
    <stop offset="0%" stop-color="#091609"/>
    <stop offset="42%" stop-color="#040d05"/>
    <stop offset="100%" stop-color="#010301"/>
  </linearGradient>
  <radialGradient id="jadeAura" cx="50%" cy="44%" r="58%">
    <stop offset="0%" stop-color="#38a870" stop-opacity="0.45"/>
    <stop offset="48%" stop-color="#165c32" stop-opacity="0.14"/>
    <stop offset="100%" stop-color="#000" stop-opacity="0"/>
  </radialGradient>
  <radialGradient id="eyeCore" cx="50%" cy="50%" r="50%">
    <stop offset="0%" stop-color="#c8ffdc"/>
    <stop offset="18%" stop-color="#50c490"/>
    <stop offset="55%" stop-color="#186a42"/>
    <stop offset="100%" stop-color="#092418" stop-opacity="0"/>
  </radialGradient>
  <linearGradient id="marshFog" x1="0" y1="0" x2="0" y2="1">
    <stop offset="0%" stop-color="#0e2c16" stop-opacity="0"/>
    <stop offset="100%" stop-color="#000" stop-opacity="1"/>
  </linearGradient>
  <radialGradient id="vig" cx="50%" cy="42%" r="78%">
    <stop offset="40%" stop-color="#000" stop-opacity="0"/>
    <stop offset="100%" stop-color="#000" stop-opacity="0.92"/>
  </radialGradient>
</defs>

<rect width="400" height="600" fill="url(#bg)"/>
<ellipse cx="200" cy="252" rx="232" ry="214" fill="url(#jadeAura)"/>

<!-- rain drip lines -->
<g stroke="#2a8a50" stroke-width="0.5" fill="none" opacity="0.2">
  <path d="M 28  0 Q 18 148 34 308 Q 50 456 24 600"/>
  <path d="M 76  0 Q 66 178 80 358 Q 94 508 70 600"/>
  <path d="M 142 0 Q 128 198 146 378 Q 162 542 138 600"/>
  <path d="M 222 0 Q 212 168 228 348 Q 242 502 216 600"/>
  <path d="M 298 0 Q 286 188 302 366 Q 318 516 292 600"/>
  <path d="M 360 0 Q 348 158 366 328 Q 380 478 354 600"/>
</g>

<!-- ── IDOL / FALSE GOD SYMBOL ── a broken eye-in-hand motif -->
<!-- outer mandala rings -->
<g transform="translate(200 238)" filter="url(#idolglow)">
  <circle r="138" fill="none" stroke="#38a870" stroke-width="0.8" opacity="0.12"/>
  <circle r="118" fill="none" stroke="#38a870" stroke-width="1" opacity="0.18"/>
  <circle r="96"  fill="none" stroke="#50c490" stroke-width="0.8" opacity="0.24"/>
</g>
<g transform="translate(200 238)" filter="url(#glow)">
  <!-- 8 spokes -->
  <g stroke="#38a870" stroke-width="1.3" fill="none" opacity="0.58">
    <line x1="0" y1="-112" x2="0" y2="-74"/>
    <line x1="0" y1="112"  x2="0" y2="74"/>
    <line x1="-112" y1="0" x2="-74" y2="0"/>
    <line x1="112"  y1="0" x2="74"  y2="0"/>
    <g transform="rotate(45)">
      <line x1="0" y1="-104" x2="0" y2="-70"/>
      <line x1="0" y1="104"  x2="0" y2="70"/>
      <line x1="-104" y1="0" x2="-70" y2="0"/>
      <line x1="104"  y1="0" x2="70"  y2="0"/>
    </g>
  </g>

  <!-- petal shapes -->
  <g fill="#1a6040" fill-opacity="0.52" stroke="#38a870" stroke-width="0.95">
    <path d="M 0,-90 C -22,-72 -22,-40 0,-28 C 22,-40 22,-72 0,-90 Z"/>
    <path d="M 0,90  C -22,72  -22,40  0,28  C 22,40  22,72  0,90  Z"/>
    <path d="M -90,0 C -72,-22 -40,-22 -28,0 C -40,22 -72,22 -90,0 Z"/>
    <path d="M 90,0  C 72,-22  40,-22  28,0  C 40,22  72,22  90,0  Z"/>
  </g>
  <g fill="#144e30" fill-opacity="0.36" stroke="#286a48" stroke-width="0.7" transform="rotate(45)">
    <path d="M 0,-84 C -15,-68 -15,-40 0,-33 C 15,-40 15,-68 0,-84 Z"/>
    <path d="M 0,84  C -15,68  -15,40  0,33  C 15,40  15,68  0,84  Z"/>
    <path d="M -84,0 C -68,-15 -40,-15 -33,0 C -40,15 -68,15 -84,0 Z"/>
    <path d="M 84,0  C 68,-15  40,-15  33,0  C 40,15  68,15  84,0  Z"/>
  </g>

  <!-- inner rings -->
  <circle r="54" fill="none" stroke="#50c490" stroke-width="1.1" opacity="0.44"/>
  <circle r="40" fill="none" stroke="#38a870" stroke-width="0.75" opacity="0.38"/>

  <!-- ring nodes -->
  <g fill="#50c490" opacity="0.72">
    <circle cx="0"   cy="-54" r="2.8"/><circle cx="0"   cy="54"  r="2.8"/>
    <circle cx="-54" cy="0"   r="2.8"/><circle cx="54"  cy="0"   r="2.8"/>
    <circle cx="-38" cy="-38" r="2.2"/><circle cx="38" cy="-38" r="2.2"/>
    <circle cx="-38" cy="38"  r="2.2"/><circle cx="38" cy="38"  r="2.2"/>
  </g>

  <!-- broken vertical crack through center — the "false" -->
  <line x1="0" y1="-38" x2="3" y2="-10" stroke="#0a1e0c" stroke-width="3"/>
  <line x1="3" y1="-10" x2="-2" y2="12" stroke="#0a1e0c" stroke-width="3"/>
  <line x1="-2" y1="12"  x2="1" y2="38" stroke="#0a1e0c" stroke-width="3"/>

  <!-- eye in center -->
  <ellipse cx="0" cy="0" rx="22" ry="14" fill="#061208" stroke="#38a870" stroke-width="1.5"/>
  <ellipse cx="0" cy="0" rx="13" ry="8" fill="url(#eyeCore)"/>
  <circle cx="0" cy="0" r="5.5" fill="#050e06" stroke="#38a870" stroke-width="0.8"/>
  <circle cx="0" cy="0" r="3" fill="#38a870"/>
  <circle cx="-1.5" cy="-1.5" r="1.2" fill="#ffffff" opacity="0.85"/>
</g>

<!-- root / ichor tendrils from center -->
<g stroke="#2a8a50" stroke-width="1.6" fill="none" stroke-linecap="round" opacity="0.62">
  <path d="M 152 298 Q 136 332 144 370 Q 158 402 144 436"/>
  <path d="M 172 312 Q 162 350 168 392 Q 178 426 164 462"/>
  <path d="M 200 320 Q 196 362 202 404 Q 208 440 196 476"/>
  <path d="M 228 312 Q 238 350 232 392 Q 222 426 236 462"/>
  <path d="M 248 298 Q 264 332 256 370 Q 242 402 256 436"/>
  <!-- side tendrils -->
  <path d="M 112 238 Q 80 250 62 272 Q 48 294 22 300"/>
  <path d="M 288 238 Q 320 250 338 272 Q 352 294 378 300"/>
</g>
<!-- tendril terminus nodes -->
<g fill="#50c490" opacity="0.68">
  <circle cx="144" cy="370" r="3"/><circle cx="144" cy="436" r="2.4"/>
  <circle cx="168" cy="392" r="3"/><circle cx="164" cy="462" r="2.4"/>
  <circle cx="202" cy="404" r="3.4"/><circle cx="196" cy="476" r="2.6"/>
  <circle cx="232" cy="392" r="3"/><circle cx="236" cy="462" r="2.4"/>
  <circle cx="256" cy="370" r="3"/><circle cx="256" cy="436" r="2.4"/>
  <circle cx="62"  cy="272" r="2.4"/><circle cx="22" cy="300" r="2"/>
  <circle cx="338" cy="272" r="2.4"/><circle cx="378" cy="300" r="2"/>
</g>

<!-- floating spores -->
<g fill="#50c490">
  <circle cx="42"  cy="162" r="1.5" opacity="0.62"/>
  <circle cx="88"  cy="128" r="1.0" opacity="0.52"/>
  <circle cx="152" cy="102" r="1.3" opacity="0.58"/>
  <circle cx="248" cy="100" r="1.1" opacity="0.52"/>
  <circle cx="314" cy="124" r="1.4" opacity="0.58"/>
  <circle cx="360" cy="160" r="1.0" opacity="0.48"/>
  <circle cx="66"  cy="318" r="0.9" opacity="0.38"/>
  <circle cx="338" cy="312" r="0.9" opacity="0.38"/>
  <circle cx="172" cy="78"  r="0.8" opacity="0.52"/>
  <circle cx="230" cy="74"  r="1.1" opacity="0.48"/>
  <circle cx="118" cy="376" r="0.8" opacity="0.42"/>
  <circle cx="286" cy="372" r="0.8" opacity="0.42"/>
</g>

<!-- marsh silhouette -->
<g fill="#010402" opacity="0.9">
  <rect x="0" y="488" width="400" height="112"/>
  <!-- reed grass -->
  <polygon points="0,488 0,456 7,440 14,456 20,436 28,452 34,446 42,466 50,452 58,470 66,460 74,476 84,488"/>
  <polygon points="74,488 74,468 82,452 90,462 98,446 106,458 114,450 122,460 130,443 138,456 144,448 152,488"/>
  <polygon points="148,488 152,466 158,452 166,462 172,446 180,460 188,488"/>
  <polygon points="224,488 232,466 238,450 246,460 254,446 262,460 270,452 278,488"/>
  <polygon points="276,488 284,450 290,462 298,446 306,458 314,448 322,462 332,454 340,488"/>
  <polygon points="338,488 346,470 354,460 362,476 370,460 378,452 386,466 394,448 400,460 400,488"/>
  <!-- lily pads -->
  <ellipse cx="96"  cy="508" rx="24" ry="8" fill="#060e07" opacity="0.92"/>
  <ellipse cx="200" cy="502" rx="30" ry="9" fill="#060e07" opacity="0.92"/>
  <ellipse cx="316" cy="510" rx="22" ry="7" fill="#060e07" opacity="0.92"/>
</g>
<rect x="0" y="452" width="400" height="148" fill="url(#marshFog)"/>

<!-- vignette + grain -->
<rect width="400" height="600" fill="url(#vig)"/>
<rect width="400" height="600" filter="url(#grain)" opacity="0.52"/>

<!-- CORNER FRAMES -->
<g stroke="#38a870" stroke-width="2" fill="none" stroke-linecap="round">
  <path d="M 14 52 L 14 14 L 52 14"/>
  <path d="M 348 14 L 386 14 L 386 52"/>
  <path d="M 14 548 L 14 586 L 52 586"/>
  <path d="M 386 548 L 386 586 L 348 586"/>
</g>
<g fill="#38a870" opacity="0.92">
  <circle cx="14" cy="14" r="3.5"/><circle cx="386" cy="14" r="3.5"/>
  <circle cx="14" cy="586" r="3.5"/><circle cx="386" cy="586" r="3.5"/>
</g>
<g stroke="#38a870" stroke-width="0.5" fill="none" opacity="0.32">
  <path d="M 22 58 L 22 22 L 58 22"/><path d="M 342 22 L 378 22 L 378 58"/>
  <path d="M 22 542 L 22 578 L 58 578"/><path d="M 378 542 L 378 578 L 342 578"/>
</g>
<rect x="10" y="10" width="380" height="580" fill="none" stroke="#38a870" stroke-width="0.5" opacity="0.26"/>

<!-- TITLE AREA -->
<rect x="0" y="458" width="400" height="142" fill="#010402" opacity="0.94"/>
<line x1="28" y1="466" x2="372" y2="466" stroke="#38a870" stroke-width="0.9" opacity="0.55"/>
<g transform="translate(200 480)" fill="#38a870" opacity="0.68">
  <path d="M -34,0 Q -17,-6 0,0 Q 17,6 34,0" fill="none" stroke="#38a870" stroke-width="0.9"/>
  <circle cx="0" cy="0" r="2.6"/>
  <circle cx="-30" cy="0" r="1.3"/><circle cx="30" cy="0" r="1.3"/>
  <path d="M -50,0 L -40,0" stroke="#38a870" stroke-width="0.7"/>
  <path d="M 40,0 L 50,0"  stroke="#38a870" stroke-width="0.7"/>
</g>
<text x="200" y="511" text-anchor="middle"
  font-family="Georgia,serif" font-size="23" font-weight="700" letter-spacing="2"
  fill="#cff5df" filter="url(#glow)">MARKED BY</text>
<text x="200" y="534" text-anchor="middle"
  font-family="Georgia,serif" font-size="11" font-weight="400" letter-spacing="5"
  fill="#38a870" opacity="0.92">FALSE GODS</text>
<text x="200" y="555" text-anchor="middle"
  font-family="Georgia,serif" font-size="8" font-weight="400" letter-spacing="4"
  fill="#7a6a5a" opacity="0.82">TARHUALA</text>
</svg>