<svg xmlns="http://www.w3.org/2000/svg" viewBox="0 0 400 600" width="400" height="600">
<defs>
  <filter id="grain">
    <feTurbulence type="fractalNoise" baseFrequency="0.84" numOctaves="4" seed="9"/>
    <feColorMatrix values="0 0 0 0 0.02  0 0 0 0 0.05  0 0 0 0 0.03  0 0 0 0.52 0"/>
    <feComposite in2="SourceGraphic" operator="in"/>
  </filter>
  <filter id="glow" x="-40%" y="-40%" width="180%" height="180%">
    <feGaussianBlur stdDeviation="8" result="b"/>
    <feMerge><feMergeNode in="b"/><feMergeNode in="SourceGraphic"/></feMerge>
  </filter>
  <filter id="deephalo" x="-80%" y="-80%" width="260%" height="260%">
    <feGaussianBlur stdDeviation="36" result="b"/>
    <feMerge><feMergeNode in="b"/><feMergeNode in="SourceGraphic"/></feMerge>
  </filter>
  <filter id="eyeshine" x="-60%" y="-60%" width="220%" height="220%">
    <feGaussianBlur stdDeviation="14" result="b"/>
    <feMerge><feMergeNode in="b"/><feMergeNode in="SourceGraphic"/></feMerge>
  </filter>
  <linearGradient id="bg" x1="0" y1="0" x2="0" y2="1">
    <stop offset="0%" stop-color="#060e08"/>
    <stop offset="42%" stop-color="#040d05"/>
    <stop offset="100%" stop-color="#010301"/>
  </linearGradient>
  <radialGradient id="jadeAura" cx="50%" cy="44%" r="58%">
    <stop offset="0%" stop-color="#38a870" stop-opacity="0.48"/>
    <stop offset="48%" stop-color="#165c32" stop-opacity="0.16"/>
    <stop offset="100%" stop-color="#000" stop-opacity="0"/>
  </radialGradient>
  <radialGradient id="eyeCore" cx="38%" cy="34%" r="68%">
    <stop offset="0%"  stop-color="#d8fff0"/>
    <stop offset="16%" stop-color="#60e0a0"/>
    <stop offset="48%" stop-color="#1a7848"/>
    <stop offset="100%" stop-color="#092418" stop-opacity="0"/>
  </radialGradient>
  <radialGradient id="handSurface" cx="38%" cy="28%" r="72%">
    <stop offset="0%"  stop-color="#1c4830"/>
    <stop offset="52%" stop-color="#0d2c1a"/>
    <stop offset="100%" stop-color="#061410"/>
  </radialGradient>
  <linearGradient id="marshFog" x1="0" y1="0" x2="0" y2="1">
    <stop offset="0%" stop-color="#0e2c16" stop-opacity="0"/>
    <stop offset="100%" stop-color="#000" stop-opacity="1"/>
  </linearGradient>
  <radialGradient id="vig" cx="50%" cy="42%" r="78%">
    <stop offset="40%" stop-color="#000" stop-opacity="0"/>
    <stop offset="100%" stop-color="#000" stop-opacity="0.92"/>
  </radialGradient>
</defs>

<rect width="400" height="600" fill="url(#bg)"/>
<ellipse cx="200" cy="252" rx="235" ry="218" fill="url(#jadeAura)"/>

<!-- rain — fine vertical streaks -->
<g stroke="#1a6838" stroke-width="0.5" fill="none" opacity="0.16">
  <path d="M 26  0 Q 16 152 32 312 Q 48 460 22 600"/>
  <path d="M 74  0 Q 64 182 78 362 Q 92 512 68 600"/>
  <path d="M 140 0 Q 126 202 144 382 Q 160 546 136 600"/>
  <path d="M 220 0 Q 210 172 226 352 Q 240 506 214 600"/>
  <path d="M 296 0 Q 284 192 300 370 Q 316 520 290 600"/>
  <path d="M 358 0 Q 346 162 364 332 Q 378 482 352 600"/>
  <path d="M 50  0 Q 42 138 58 288 Q 72 426 48 600" opacity="0.08"/>
  <path d="M 170 0 Q 162 168 178 338 Q 192 492 168 600" opacity="0.08"/>
  <path d="M 328 0 Q 318 172 336 342 Q 352 492 326 600" opacity="0.08"/>
</g>

<!-- surveillance orbit rings -->
<g transform="translate(200 234)" filter="url(#deephalo)">
  <circle r="160" fill="none" stroke="#38a870" stroke-width="1.5" opacity="0.08"/>
  <circle r="138" fill="none" stroke="#38a870" stroke-width="2.0" opacity="0.12"/>
</g>
<g transform="translate(200 234)">
  <circle r="156" fill="none" stroke="#1e6040" stroke-width="1.2" stroke-dasharray="8,12" opacity="0.28"/>
  <circle r="134" fill="none" stroke="#2a7850" stroke-width="1.0" stroke-dasharray="5,9"  opacity="0.34"/>
  <circle r="112" fill="none" stroke="#38a870" stroke-width="0.8" stroke-dasharray="3,7"  opacity="0.28"/>
  <!-- 8 watching eye-nodes on outer ring -->
  <g filter="url(#glow)" opacity="0.78">
    <ellipse cx="0"    cy="-156" rx="3.5" ry="2.0" fill="#50c490"/>
    <ellipse cx="0"    cy="156"  rx="3.5" ry="2.0" fill="#50c490"/>
    <ellipse cx="-156" cy="0"    rx="2.0" ry="3.5" fill="#50c490"/>
    <ellipse cx="156"  cy="0"    rx="2.0" ry="3.5" fill="#50c490"/>
    <ellipse cx="-110" cy="-110" rx="3.0" ry="1.8" fill="#3a9468" transform="rotate(-45 -110 -110)"/>
    <ellipse cx="110"  cy="-110" rx="3.0" ry="1.8" fill="#3a9468" transform="rotate(45 110 -110)"/>
    <ellipse cx="-110" cy="110"  rx="3.0" ry="1.8" fill="#3a9468" transform="rotate(45 -110 110)"/>
    <ellipse cx="110"  cy="110"  rx="3.0" ry="1.8" fill="#3a9468" transform="rotate(-45 110 110)"/>
  </g>
</g>

<!-- ── THE HAND ── -->
<g transform="translate(200 234)" filter="url(#glow)">
  <!-- hand shadow for depth -->
  <path d="M -54 72 Q -62 22 -60 -8 Q -58 -36 -52 -44 Q -44 -52 -36 -44 Q -32 -38 -32 -18 L -32 -64 Q -31 -88 -22 -90 Q -12 -92 -12 -68 L -12 -94 Q -11 -118 -2 -119 Q 8 -120 9 -96 L 9 -70 Q 10,-102 21,-102 Q 31,-102 32,-76 L 32,-46 Q 33,-76 44,-74 Q 54,-72 54,-46 Q 58,-12 62,72 Q 32,92 -30,92 Z"
    fill="#061410" opacity="0.60" transform="translate(4 6)"/>

  <!-- palm -->
  <path d="M -54 72 Q -62 22 -60 -8 Q -58 -36 -52 -44 Q -44 -52 -36 -44 Q -32 -38 -32 -18 L -32 -64 Q -31 -88 -22 -90 Q -12 -92 -12 -68 L -12 -94 Q -11 -118 -2 -119 Q 8 -120 9 -96 L 9 -70 Q 10,-102 21,-102 Q 31,-102 32,-76 L 32,-46 Q 33,-76 44,-74 Q 54,-72 54,-46 Q 58,-12 62,72 Q 32,92 -30,92 Z"
    fill="url(#handSurface)" stroke="#38a870" stroke-width="1.8"/>

  <!-- surface sheen on upper palm -->
  <path d="M -52,-44 Q -36,-60 -12,-68 Q 8,-72 26,-62 Q 40,-54 48,-38 Q 36,-48 18,-52 Q -4,-54 -22,-46 Q -38,-38 -52,-44 Z"
    fill="#ffffff" opacity="0.09"/>

  <!-- finger separation lines -->
  <g stroke="#0a2018" stroke-width="0.9" fill="none" opacity="0.60">
    <line x1="-32" y1="-44" x2="-22" y2="-88"/>
    <line x1="-12" y1="-68" x2="-2"  y2="-118"/>
    <line x1=" 9"  y1="-70" x2=" 20" y2="-100"/>
    <line x1=" 32" y1="-46" x2=" 43" y2="-72"/>
  </g>
  <!-- knuckle creases -->
  <g stroke="#0a2018" stroke-width="0.7" fill="none" opacity="0.50">
    <path d="M -38 -50 Q -28 -56 -18 -50"/>
    <path d="M -14 -74 Q -4  -80  8  -74"/>
    <path d="M  8  -54 Q  20 -60  30 -54"/>
    <path d="M  32 -30 Q  42 -34  50 -28"/>
  </g>
  <!-- palm life lines -->
  <g stroke="#1a4828" stroke-width="0.9" fill="none" opacity="0.42">
    <path d="M -46 8  Q -10 -2  32 6"/>
    <path d="M -42 28 Q  -6 18  30 26"/>
    <path d="M -34 54 Q  -2 44  28 52"/>
  </g>
  <!-- thumb outline -->
  <path d="M -54 14 Q -70 -2 -64 -24 Q -58 -42 -52 -44"
    fill="none" stroke="#38a870" stroke-width="1.4" opacity="0.55"/>

  <!-- crack network radiating from palm eye -->
  <g stroke="#5ad898" stroke-width="1.6" fill="none" stroke-linecap="round" opacity="0.80">
    <path d="M 0 0 Q -20 -24 -34 -50"/>
    <path d="M 0 0 Q  18 -22  28 -48"/>
    <path d="M 0 0 Q -24  16 -42  40"/>
    <path d="M 0 0 Q  20  14  36  46"/>
    <path d="M 0 0 Q -30   2 -56  10"/>
    <path d="M 0 0 Q  30   0  56   8"/>
  </g>
  <!-- hairline secondaries -->
  <g stroke="#2a9860" stroke-width="0.8" fill="none" stroke-linecap="round" opacity="0.48">
    <path d="M -34 -50 Q -40 -64 -36 -78"/>
    <path d="M  28 -48 Q  34 -62  30 -76"/>
    <path d="M -42  40 Q -50  56 -46  72"/>
    <path d="M  36  46 Q  44  62  42  78"/>
    <path d="M -56  10 Q -60  -2 -58 -18"/>
    <path d="M  56   8 Q  60  -4  58 -20"/>
  </g>
  <!-- crack node glows -->
  <g fill="#60e8a8" filter="url(#eyeshine)" opacity="0.65">
    <circle cx="-34" cy="-50" r="3.0"/>
    <circle cx=" 28" cy="-48" r="3.0"/>
    <circle cx="-42" cy=" 40" r="2.6"/>
    <circle cx=" 36" cy=" 46" r="2.6"/>
    <circle cx="-56" cy=" 10" r="2.0"/>
    <circle cx=" 56" cy="  8" r="2.0"/>
  </g>

  <!-- ── PALM EYE ── -->
  <ellipse cx="0" cy="0" rx="34" ry="22" fill="#186042" opacity="0.40" filter="url(#eyeshine)"/>
  <!-- sclera -->
  <ellipse cx="0" cy="0" rx="32" ry="20" fill="#050e08" stroke="#38a870" stroke-width="2.0"/>
  <!-- iris ring -->
  <ellipse cx="0" cy="0" rx="22" ry="14" fill="url(#eyeCore)"/>
  <!-- pupil -->
  <circle cx="0" cy="0" r="10" fill="#030806"/>
  <!-- iris detail rings -->
  <ellipse cx="0" cy="0" rx="17" ry="11" fill="none" stroke="#50c490" stroke-width="0.8" opacity="0.55"/>
  <ellipse cx="0" cy="0" rx="12" ry="8"  fill="none" stroke="#60d898" stroke-width="0.5" opacity="0.40"/>
  <!-- highlight -->
  <circle cx="-7" cy="-5" r="4.5" fill="#ffffff" opacity="0.72"/>
  <circle cx="-6" cy="-5" r="2.0" fill="#ffffff" opacity="0.90"/>
  <!-- eyelid arcs -->
  <path d="M -32 0 Q 0 -24 32 0" fill="none" stroke="#38a870" stroke-width="1.4" opacity="0.58"/>
  <path d="M -32 0 Q 0  18 32 0" fill="none" stroke="#38a870" stroke-width="1.0" opacity="0.44"/>
  <!-- lashes top -->
  <g stroke="#2a8858" stroke-width="1.0" stroke-linecap="round" opacity="0.55">
    <line x1="-25" y1="-12" x2="-29" y2="-20"/>
    <line x1="-14" y1="-18" x2="-15" y2="-26"/>
    <line x1="  0" y1="-20" x2="  0" y2="-28"/>
    <line x1=" 14" y1="-18" x2=" 16" y2="-26"/>
    <line x1=" 25" y1="-12" x2=" 29" y2="-20"/>
  </g>
</g>

<!-- dripping ichor tendrils down -->
<g stroke="#1e7848" stroke-width="1.6" fill="none" stroke-linecap="round" opacity="0.58">
  <path d="M 158 322 Q 146 358 154 398 Q 164 432 148 468"/>
  <path d="M 178 330 Q 170 368 176 408 Q 184 442 170 476"/>
  <path d="M 200 338 Q 196 376 202 416 Q 208 450 196 484"/>
  <path d="M 222 330 Q 230 368 224 408 Q 216 442 230 476"/>
  <path d="M 242 322 Q 254 358 246 398 Q 236 432 252 468"/>
  <!-- wide side tendrils -->
  <path d="M 110 238 Q 78 252 58 278 Q 40 302 16 308"/>
  <path d="M 290 238 Q 322 252 342 278 Q 360 302 384 308"/>
</g>
<!-- branch offshoots -->
<g stroke="#1e7848" stroke-width="0.9" fill="none" stroke-linecap="round" opacity="0.38">
  <path d="M 154 398 Q 138 402 124 394"/>
  <path d="M 148 468 Q 132 476 118 468"/>
  <path d="M 246 398 Q 262 402 276 394"/>
  <path d="M 252 468 Q 268 476 282 468"/>
  <path d="M 58 278 Q 46 260 32 252"/>
  <path d="M 342 278 Q 354 260 368 252"/>
</g>
<!-- tendril nodes -->
<g fill="#50c490" filter="url(#glow)" opacity="0.70">
  <circle cx="154" cy="398" r="3.0"/><circle cx="148" cy="468" r="2.4"/>
  <circle cx="176" cy="408" r="3.0"/><circle cx="170" cy="476" r="2.4"/>
  <circle cx="202" cy="416" r="3.4"/><circle cx="196" cy="484" r="2.6"/>
  <circle cx="224" cy="408" r="3.0"/><circle cx="230" cy="476" r="2.4"/>
  <circle cx="246" cy="398" r="3.0"/><circle cx="252" cy="468" r="2.4"/>
</g>

<!-- floating spores -->
<g fill="#50c490">
  <circle cx="44"  cy="158" r="1.6" opacity="0.65"/>
  <circle cx="90"  cy="124" r="1.1" opacity="0.54"/>
  <circle cx="154" cy="100" r="1.4" opacity="0.60"/>
  <circle cx="250" cy="98"  r="1.2" opacity="0.55"/>
  <circle cx="316" cy="122" r="1.5" opacity="0.60"/>
  <circle cx="362" cy="156" r="1.1" opacity="0.50"/>
  <circle cx="68"  cy="316" r="1.0" opacity="0.40"/>
  <circle cx="336" cy="310" r="1.0" opacity="0.40"/>
  <circle cx="174" cy="74"  r="0.9" opacity="0.55"/>
  <circle cx="232" cy="70"  r="1.2" opacity="0.50"/>
</g>

<!-- kbach above hand -->
<g transform="translate(200 96)" fill="none" stroke="#38a870" stroke-width="0.90" opacity="0.38">
  <path d="M -92,0 Q -68,-24 -46,0 Q -23,24 0,0 Q 23,-24 46,0 Q 68,24 92,0"/>
  <path d="M -68,-18 Q -46,-36 -23,-18 Q 0,0 23,-18 Q 46,-36 68,-18" opacity="0.55"/>
</g>
<g transform="translate(200 96)" fill="#38a870" opacity="0.55">
  <circle cx="0"   cy="0" r="4.0"/>
  <circle cx="-46" cy="0" r="2.2"/><circle cx="46"  cy="0" r="2.2"/>
  <circle cx="-92" cy="0" r="1.6"/><circle cx="92"  cy="0" r="1.6"/>
</g>

<!-- marsh silhouette -->
<g fill="#010402" opacity="0.94">
  <rect x="0" y="488" width="400" height="112"/>
  <!-- reed bank with varying heights -->
  <polygon points="0,488 0,452 8,436 16,452 24,430 34,448 42,438 52,456 62,444 72,460 82,450 92,470 102,456 112,488"/>
  <polygon points="108,488 116,462 124,446 132,456 140,440 148,454 156,446 164,460 172,450 180,470 190,488"/>
  <polygon points="186,488 194,462 200,450 206,462 214,488"/>
  <polygon points="218,488 228,462 236,446 244,456 252,440 260,454 268,446 276,460 286,450 294,470 302,488"/>
  <polygon points="298,488 308,456 316,444 326,460 336,450 346,440 356,452 368,438 378,454 388,444 398,460 400,462 400,488"/>
  <!-- water surface lily pads -->
  <ellipse cx="88"  cy="510" rx="26" ry="9"  fill="#060e07" opacity="0.94"/>
  <ellipse cx="200" cy="504" rx="32" ry="10" fill="#060e07" opacity="0.94"/>
  <ellipse cx="318" cy="512" rx="24" ry="8"  fill="#060e07" opacity="0.94"/>
  <!-- water shimmer -->
  <ellipse cx="140" cy="522" rx="18" ry="4"  fill="#0a1e0c" opacity="0.60"/>
  <ellipse cx="268" cy="520" rx="20" ry="4"  fill="#0a1e0c" opacity="0.60"/>
</g>
<!-- mist at base of reeds -->
<ellipse cx="200" cy="498" rx="200" ry="22" fill="#0e3018" opacity="0.18"/>
<rect x="0" y="452" width="400" height="148" fill="url(#marshFog)"/>

<rect width="400" height="600" fill="url(#vig)"/>
<rect width="400" height="600" filter="url(#grain)" opacity="0.52"/>

<!-- CORNER FRAMES -->
<g stroke="#38a870" stroke-width="1.9" fill="none" stroke-linecap="round">
  <path d="M 14 46 L 14 14 L 46 14"/><path d="M 354 14 L 386 14 L 386 46"/>
  <path d="M 14 554 L 14 586 L 46 586"/><path d="M 386 554 L 386 586 L 354 586"/>
</g>
<g fill="#38a870" opacity="0.92">
  <circle cx="14" cy="14" r="3.2"/><circle cx="386" cy="14" r="3.2"/>
  <circle cx="14" cy="586" r="3.2"/><circle cx="386" cy="586" r="3.2"/>
</g>
<g fill="#38a870" opacity="0.48" stroke="#38a870" stroke-width="0.5">
  <path d="M 22 22 Q 34 22 34 34 Q 22 34 22 22 Z"/><path d="M 378 22 Q 366 22 366 34 Q 378 34 378 22 Z"/>
  <path d="M 22 578 Q 34 578 34 566 Q 22 566 22 578 Z"/><path d="M 378 578 Q 366 578 366 566 Q 378 566 378 578 Z"/>
</g>
<rect x="10" y="10" width="380" height="580" fill="none" stroke="#38a870" stroke-width="0.5" opacity="0.26"/>

<rect x="0" y="450" width="400" height="150" fill="#010402" opacity="0.96"/>
<line x1="20" y1="458" x2="380" y2="458" stroke="#38a870" stroke-width="0.8" opacity="0.46"/>
<g transform="translate(200 472)" fill="none" stroke="#38a870" stroke-width="0.88" opacity="0.60">
  <path d="M -62,0 Q -42,-8 -21,0 Q 0,8 21,0 Q 42,-8 62,0"/>
  <circle cx="0" cy="0" r="3.2" fill="#38a870" stroke="none"/>
  <circle cx="-32" cy="0.5" r="1.6" fill="#38a870" stroke="none" opacity="0.7"/>
  <circle cx=" 32" cy="0.5" r="1.6" fill="#38a870" stroke="none" opacity="0.7"/>
  <path d="M -82,0 L -70,0" stroke-width="0.7"/><path d="M 70,0 L 82,0" stroke-width="0.7"/>
</g>
<g fill="#38a870" opacity="0.52">
  <circle cx="26" cy="512" r="1.8"/><circle cx="374" cy="512" r="1.8"/>
  <circle cx="26" cy="534" r="1.2"/><circle cx="374" cy="534" r="1.2"/>
</g>
<text x="200" y="510" text-anchor="middle"
  font-family="Georgia,serif" font-size="34" font-weight="700" letter-spacing="6"
  fill="#cff5df" filter="url(#glow)">MARKED</text>
<text x="200" y="535" text-anchor="middle"
  font-family="Georgia,serif" font-size="10" font-weight="400" letter-spacing="6"
  fill="#50c490" opacity="0.90">BY FALSE GODS</text>
<line x1="80" y1="546" x2="320" y2="546" stroke="#38a870" stroke-width="0.5" opacity="0.36"/>
<text x="200" y="561" text-anchor="middle"
  font-family="Georgia,serif" font-size="8" font-weight="400" letter-spacing="5"
  fill="#5a7a62" opacity="0.74">TARHUALA</text>
</svg>
