<svg xmlns="http://www.w3.org/2000/svg" viewBox="0 0 400 600" width="400" height="600">
<defs>
  <filter id="grain">
    <feTurbulence type="fractalNoise" baseFrequency="0.82" numOctaves="4" seed="11"/>
    <feColorMatrix values="0 0 0 0 0.06  0 0 0 0 0.05  0 0 0 0 0.03  0 0 0 0.44 0"/>
    <feComposite in2="SourceGraphic" operator="in"/>
  </filter>
  <filter id="glow" x="-40%" y="-40%" width="180%" height="180%">
    <feGaussianBlur stdDeviation="8" result="b"/>
    <feMerge><feMergeNode in="b"/><feMergeNode in="SourceGraphic"/></feMerge>
  </filter>
  <filter id="maskhalo" x="-55%" y="-55%" width="210%" height="210%">
    <feGaussianBlur stdDeviation="26" result="b"/>
    <feMerge><feMergeNode in="b"/><feMergeNode in="SourceGraphic"/></feMerge>
  </filter>
  <filter id="eyeshine" x="-60%" y="-60%" width="220%" height="220%">
    <feGaussianBlur stdDeviation="12" result="b"/>
    <feMerge><feMergeNode in="b"/><feMergeNode in="SourceGraphic"/></feMerge>
  </filter>
  <linearGradient id="bg" x1="0" y1="0" x2="0" y2="1">
    <stop offset="0%" stop-color="#100d08"/>
    <stop offset="48%" stop-color="#0a0806"/>
    <stop offset="100%" stop-color="#030202"/>
  </linearGradient>
  <radialGradient id="ivoryAura" cx="50%" cy="40%" r="60%">
    <stop offset="0%" stop-color="#e8dfc0" stop-opacity="0.32"/>
    <stop offset="52%" stop-color="#c0a870" stop-opacity="0.10"/>
    <stop offset="100%" stop-color="#000" stop-opacity="0"/>
  </radialGradient>
  <radialGradient id="maskFace" cx="36%" cy="28%" r="74%">
    <stop offset="0%"   stop-color="#f8f0dc"/>
    <stop offset="28%"  stop-color="#e8d49a"/>
    <stop offset="62%"  stop-color="#c09448"/>
    <stop offset="88%"  stop-color="#7a5828"/>
    <stop offset="100%" stop-color="#3e2610"/>
  </radialGradient>
  <linearGradient id="maskEdgeSheen" x1="0" y1="0" x2="1" y2="0.5">
    <stop offset="0%"   stop-color="#ffffff" stop-opacity="0.22"/>
    <stop offset="40%"  stop-color="#f0c840" stop-opacity="0"/>
    <stop offset="100%" stop-color="#c08010" stop-opacity="0.28"/>
  </linearGradient>
  <radialGradient id="dropletFill" cx="36%" cy="28%" r="68%">
    <stop offset="0%"   stop-color="#e0f4ff"/>
    <stop offset="38%"  stop-color="#78b8e0"/>
    <stop offset="100%" stop-color="#1a4868"/>
  </radialGradient>
  <linearGradient id="groundFade" x1="0" y1="0" x2="0" y2="1">
    <stop offset="0%" stop-color="#000" stop-opacity="0"/>
    <stop offset="100%" stop-color="#000" stop-opacity="1"/>
  </linearGradient>
  <radialGradient id="vig" cx="50%" cy="42%" r="78%">
    <stop offset="40%" stop-color="#000" stop-opacity="0"/>
    <stop offset="100%" stop-color="#000" stop-opacity="0.94"/>
  </radialGradient>
</defs>

<rect width="400" height="600" fill="url(#bg)"/>
<ellipse cx="200" cy="252" rx="234" ry="220" fill="url(#ivoryAura)"/>

<!-- palace hall — deeply receding arches -->
<path d="M 72 560 Q 72 70 200 46 Q 328 70 328 560" fill="none" stroke="#c8a848" stroke-width="1.2" opacity="0.16"/>
<path d="M 98 560 Q 98 104 200 86 Q 302 104 302 560" fill="none" stroke="#c8a848" stroke-width="0.7" opacity="0.10"/>
<path d="M 122 560 Q 122 134 200 122 Q 278 134 278 560" fill="none" stroke="#c8a848" stroke-width="0.4" opacity="0.07"/>
<path d="M 144 560 Q 144 160 200 152 Q 256 160 256 560" fill="none" stroke="#c8a848" stroke-width="0.3" opacity="0.05"/>
<!-- coffered ceiling -->
<g stroke="#c8a848" stroke-width="0.35" fill="none" opacity="0.06">
  <line x1="0" y1="108" x2="400" y2="108"/>
  <line x1="0" y1="132" x2="400" y2="132"/>
  <line x1="0" y1="156" x2="400" y2="156"/>
</g>
<!-- side curtain masses -->
<path d="M 0 0 Q 44 90 26 200 Q 12 278 30 370 Q 48 444 26 530 L 0 530 Z" fill="#080604" opacity="0.72"/>
<path d="M 400 0 Q 356 90 374 200 Q 388 278 370 370 Q 352 444 374 530 L 400 530 Z" fill="#080604" opacity="0.72"/>
<!-- curtain fold shadows -->
<g stroke="#c8a848" stroke-width="0.6" fill="none" opacity="0.10">
  <path d="M 10 0 Q 36 90 20 200 Q 8 278 24 370"/>
  <path d="M 20 0 Q 48 90 32 200 Q 18 278 36 370"/>
  <path d="M 390 0 Q 364 90 380 200 Q 392 278 376 370"/>
  <path d="M 380 0 Q 352 90 368 200 Q 382 278 364 370"/>
</g>
<!-- tassel fringe -->
<g stroke="#c8a848" stroke-width="1.6" stroke-linecap="round" opacity="0.38">
  <line x1="22" y1="194" x2="17" y2="218"/>
  <line x1="30" y1="198" x2="25" y2="222"/>
  <line x1="38" y1="196" x2="33" y2="220"/>
  <line x1="47" y1="198" x2="42" y2="222"/>
  <line x1="378" y1="194" x2="383" y2="218"/>
  <line x1="370" y1="198" x2="375" y2="222"/>
  <line x1="362" y1="196" x2="367" y2="220"/>
  <line x1="353" y1="198" x2="358" y2="222"/>
</g>
<!-- tassel beads -->
<g fill="#c8a848" opacity="0.50">
  <circle cx="17" cy="220" r="2.5"/><circle cx="25" cy="224" r="2.5"/>
  <circle cx="33" cy="222" r="2.5"/><circle cx="42" cy="224" r="2.5"/>
  <circle cx="383" cy="220" r="2.5"/><circle cx="375" cy="224" r="2.5"/>
  <circle cx="367" cy="222" r="2.5"/><circle cx="358" cy="224" r="2.5"/>
</g>

<!-- ── MASQUERADE MASK — floating half-mask ── -->
<!-- deep shadow halo behind mask -->
<g transform="translate(200 222)" filter="url(#maskhalo)">
  <ellipse rx="116" ry="98" fill="#c8a848" opacity="0.18"/>
</g>

<!-- mask depth shadow layer -->
<path d="M 114 150 Q 104 192 112 244 Q 120 292 156 320 Q 186 342 220 334 Q 274 320 300 272 Q 322 228 310 178 Q 298 136 264 116 Q 232 100 198 104 Q 154 108 130 132 Z"
  fill="#100806" opacity="0.65" transform="translate(5 7)"/>

<!-- mask main face -->
<path d="M 110 152 Q 100 196 108 248 Q 116 296 152 322 Q 182 342 218 334 Q 270 318 296 268 Q 318 224 306 172 Q 294 128 260 110 Q 228 94 194 98 Q 150 104 126 130 Z"
  fill="url(#maskFace)"/>

<!-- surface sheen — porcelain highlight -->
<path d="M 126 130 Q 144 110 172 102 Q 202 96 228 108 Q 215 116 200 120 Q 172 128 148 148 Q 133 162 126 130 Z"
  fill="#ffffff" opacity="0.16"/>

<!-- mask border — double gold line -->
<path d="M 110 152 Q 100 196 108 248 Q 116 296 152 322 Q 182 342 218 334 Q 270 318 296 268 Q 318 224 306 172 Q 294 128 260 110 Q 228 94 194 98 Q 150 104 126 130 Z"
  fill="none" stroke="#c8a848" stroke-width="2.4"/>
<path d="M 118 158 Q 109 200 116 250 Q 124 294 158 318 Q 186 336 218 328 Q 266 314 290 266 Q 310 225 299 176 Q 288 135 256 118 Q 226 102 196 106 Q 155 112 133 136 Z"
  fill="none" stroke="#dfc070" stroke-width="0.9" opacity="0.55"/>

<!-- eye hole cutout — deep dramatic eye visible through mask -->
<ellipse cx="240" cy="196" rx="32" ry="20" fill="#060402" stroke="#c8a848" stroke-width="1.8"/>
<!-- visible eye within -->
<ellipse cx="240" cy="196" rx="22" ry="13" fill="#0c0804"/>
<ellipse cx="240" cy="196" rx="14" ry="9" fill="#c8a848" opacity="0.62"/>
<circle  cx="240" cy="196" r="7"   fill="#050302"/>
<circle  cx="236" cy="193" r="3.5" fill="#ffffff" opacity="0.75"/>
<circle  cx="235" cy="192" r="1.8" fill="#ffffff" opacity="0.92"/>
<!-- eyelid arc structure -->
<path d="M 210 196 Q 240 178 270 196" fill="none" stroke="#c8a848" stroke-width="1.4" opacity="0.62"/>
<path d="M 210 196 Q 240 212 270 196" fill="none" stroke="#c8a848" stroke-width="0.9" opacity="0.42"/>
<!-- upper lashes -->
<g stroke="#c8a848" stroke-width="1.1" stroke-linecap="round" opacity="0.52">
  <line x1="216" y1="184" x2="212" y2="175"/>
  <line x1="228" y1="178" x2="226" y2="169"/>
  <line x1="240" y1="176" x2="240" y2="167"/>
  <line x1="252" y1="178" x2="254" y2="169"/>
  <line x1="264" y1="184" x2="268" y2="175"/>
</g>

<!-- filigree scrollwork — above eye brow -->
<g fill="none" stroke="#c8a848" stroke-width="1.0" opacity="0.65">
  <path d="M 206 166 Q 222 154 240 158 Q 258 162 272 154"/>
  <path d="M 212 160 Q 228 150 240 152 Q 252 154 266 148"/>
  <!-- side cheek scroll -->
  <path d="M 142 218 Q 152 204 166 212 Q 178 220 188 208"/>
  <path d="M 146 238 Q 158 226 170 234 Q 180 242 192 230"/>
  <!-- chin curve detail -->
  <path d="M 162 316 Q 182 328 202 332 Q 220 334 242 326 Q 262 316 280 298"/>
</g>
<!-- filigree accent dots -->
<g fill="#c8a848" opacity="0.72">
  <circle cx="206" cy="166" r="2.2"/><circle cx="272" cy="154" r="2.2"/>
  <circle cx="142" cy="218" r="2.0"/><circle cx="188" cy="208" r="2.0"/>
  <circle cx="146" cy="238" r="1.8"/><circle cx="192" cy="230" r="1.8"/>
</g>
<!-- cheekbone embossed panel -->
<path d="M 148 240 Q 160 230 172 238 Q 182 246 180 258 Q 168 264 156 256 Q 146 248 148 240 Z"
  fill="#c8a848" fill-opacity="0.08" stroke="#c8a848" stroke-width="0.7" opacity="0.40"/>

<!-- ── WATER DROPLET — Elena's hidden affinity on the brow ── -->
<g transform="translate(186 120)" filter="url(#glow)">
  <path d="M 0,-20 Q -11,-8 -11,6 Q -11,18 0,22 Q 11,18 11,6 Q 11,-8 0,-20 Z"
    fill="url(#dropletFill)" stroke="#c8a848" stroke-width="1.3"/>
  <ellipse cx="-3" cy="-3" rx="3.8" ry="6" fill="#e8f6ff" opacity="0.52"/>
  <circle cx="-4" cy="-7" r="2.0" fill="#ffffff" opacity="0.78"/>
</g>

<!-- mask ribbon tie — trailing off to the right -->
<path d="M 296 232 Q 334 220 366 230 Q 388 236 400 228" fill="none" stroke="#c8a848" stroke-width="1.8" opacity="0.52"/>
<path d="M 296 238 Q 334 228 366 238 Q 388 244 400 236" fill="none" stroke="#e8c858" stroke-width="0.8" opacity="0.30"/>
<!-- ribbon bow shape near mask cheek -->
<path d="M 294 230 Q 306 218 316 228 Q 306 238 294 230 Z" fill="#c8a848" opacity="0.38"/>
<path d="M 294 230 Q 306 242 316 232 Q 306 222 294 230 Z" fill="#a88828" opacity="0.28"/>

<!-- chin tassel chain -->
<g stroke="#c8a848" stroke-width="1.2" stroke-linecap="round" opacity="0.40">
  <line x1="178" y1="334" x2="174" y2="356"/>
  <line x1="194" y1="338" x2="192" y2="360"/>
  <line x1="210" y1="340" x2="210" y2="362"/>
  <line x1="226" y1="338" x2="228" y2="360"/>
  <line x1="242" y1="332" x2="246" y2="354"/>
</g>
<g fill="#c8a848" opacity="0.58">
  <circle cx="174" cy="358" r="2.8"/>
  <circle cx="192" cy="362" r="2.8"/>
  <circle cx="210" cy="364" r="2.8"/>
  <circle cx="228" cy="362" r="2.8"/>
  <circle cx="246" cy="356" r="2.8"/>
</g>

<!-- scattered falling rose petals — unique, not candles -->
<g fill="#c8a848" opacity="0.28">
  <ellipse cx="68"  cy="280" rx="5" ry="3" transform="rotate(-25 68 280)"/>
  <ellipse cx="108" cy="330" rx="4" ry="2.5" transform="rotate(15 108 330)"/>
  <ellipse cx="48"  cy="370" rx="5" ry="3" transform="rotate(-40 48 370)"/>
  <ellipse cx="330" cy="264" rx="4" ry="2.5" transform="rotate(30 330 264)"/>
  <ellipse cx="348" cy="318" rx="5" ry="3" transform="rotate(-20 348 318)"/>
  <ellipse cx="356" cy="388" rx="4" ry="2.5" transform="rotate(50 356 388)"/>
  <ellipse cx="84"  cy="440" rx="4" ry="2.5" transform="rotate(-10 84 440)"/>
  <ellipse cx="316" cy="432" rx="5" ry="3" transform="rotate(35 316 432)"/>
</g>

<!-- floating gold motes -->
<g fill="#d8b860">
  <circle cx="40"  cy="144" r="1.3" opacity="0.58"/><circle cx="78"  cy="108" r="1.6" opacity="0.50"/>
  <circle cx="140" cy="86"  r="1.1" opacity="0.54"/><circle cx="264" cy="84"  r="1.2" opacity="0.54"/>
  <circle cx="328" cy="106" r="1.4" opacity="0.52"/><circle cx="368" cy="142" r="1.1" opacity="0.46"/>
  <circle cx="54"  cy="276" r="1.0" opacity="0.38"/><circle cx="352" cy="270" r="1.0" opacity="0.38"/>
  <circle cx="112" cy="314" r="0.9" opacity="0.32"/><circle cx="292" cy="310" r="0.9" opacity="0.32"/>
  <circle cx="176" cy="60"  r="0.8" opacity="0.42"/><circle cx="230" cy="56"  r="0.9" opacity="0.38"/>
</g>

<!-- kbach filigree above mask -->
<g transform="translate(200 110)" fill="none" stroke="#c8a848" stroke-width="0.90" opacity="0.42">
  <path d="M -94,0 Q -70,-26 -47,0 Q -23,26 0,0 Q 23,-26 47,0 Q 70,26 94,0"/>
  <path d="M -70,-20 Q -47,-38 -23,-20 Q 0,0 23,-20 Q 47,-38 70,-20" opacity="0.58"/>
</g>
<g transform="translate(200 110)" fill="#c8a848" opacity="0.60">
  <circle cx="0"   cy="0" r="4.2"/>
  <circle cx="-47" cy="0" r="2.3"/><circle cx="47"  cy="0" r="2.3"/>
  <circle cx="-94" cy="0" r="1.7"/><circle cx="94"  cy="0" r="1.7"/>
</g>

<!-- marble floor tiles -->
<rect x="0" y="488" width="400" height="112" fill="#040302" opacity="0.98"/>
<g stroke="#221808" stroke-width="0.6" fill="none" opacity="0.32">
  <line x1="0"   y1="498" x2="400" y2="498"/>
  <line x1="0"   y1="512" x2="400" y2="512"/>
  <line x1="0"   y1="526" x2="400" y2="526"/>
  <line x1="80"  y1="488" x2="80"  y2="535"/>
  <line x1="160" y1="488" x2="160" y2="535"/>
  <line x1="240" y1="488" x2="240" y2="535"/>
  <line x1="320" y1="488" x2="320" y2="535"/>
</g>
<!-- marble diagonal inlay -->
<g stroke="#c8a848" stroke-width="0.35" fill="none" opacity="0.12">
  <line x1="40"  y1="488" x2="0"   y2="530"/>
  <line x1="120" y1="488" x2="80"  y2="530"/>
  <line x1="200" y1="488" x2="160" y2="530"/>
  <line x1="280" y1="488" x2="240" y2="530"/>
  <line x1="360" y1="488" x2="320" y2="530"/>
</g>

<rect x="0" y="450" width="400" height="148" fill="url(#groundFade)"/>
<rect width="400" height="600" fill="url(#vig)"/>
<rect width="400" height="600" filter="url(#grain)" opacity="0.48"/>

<!-- CORNER FRAMES -->
<g stroke="#c8a848" stroke-width="1.9" fill="none" stroke-linecap="round">
  <path d="M 14 46 L 14 14 L 46 14"/><path d="M 354 14 L 386 14 L 386 46"/>
  <path d="M 14 554 L 14 586 L 46 586"/><path d="M 386 554 L 386 586 L 354 586"/>
</g>
<g fill="#c8a848" opacity="0.92">
  <circle cx="14" cy="14" r="3.2"/><circle cx="386" cy="14" r="3.2"/>
  <circle cx="14" cy="586" r="3.2"/><circle cx="386" cy="586" r="3.2"/>
</g>
<g fill="#c8a848" opacity="0.46" stroke="#c8a848" stroke-width="0.5">
  <path d="M 22 22 Q 34 22 34 34 Q 22 34 22 22 Z"/><path d="M 378 22 Q 366 22 366 34 Q 378 34 378 22 Z"/>
  <path d="M 22 578 Q 34 578 34 566 Q 22 566 22 578 Z"/><path d="M 378 578 Q 366 578 366 566 Q 378 566 378 578 Z"/>
</g>
<rect x="10" y="10" width="380" height="580" fill="none" stroke="#c8a848" stroke-width="0.6" opacity="0.32"/>

<!-- TITLE -->
<rect x="0" y="456" width="400" height="144" fill="#040302" opacity="0.93"/>
<line x1="28" y1="465" x2="372" y2="465" stroke="#c8a848" stroke-width="0.9" opacity="0.56"/>
<g transform="translate(200 479)" fill="#c8a848" opacity="0.70">
  <path d="M -36,0 Q -18,-6 0,0 Q 18,6 36,0" fill="none" stroke="#c8a848" stroke-width="0.92"/>
  <circle cx="0" cy="0" r="2.8"/>
  <circle cx="-32" cy="0" r="1.4"/><circle cx="32" cy="0" r="1.4"/>
  <path d="M -52,0 L -42,0" stroke-width="0.7"/><path d="M 42,0 L 52,0" stroke-width="0.7"/>
</g>
<text x="200" y="512" text-anchor="middle"
  font-family="Georgia,serif" font-size="26" font-weight="700" letter-spacing="3"
  fill="#f8eece" filter="url(#glow)">MASQUERADE</text>
<text x="200" y="537" text-anchor="middle"
  font-family="Georgia,serif" font-size="11" font-weight="400" letter-spacing="5"
  fill="#c8a848" opacity="0.92">IN THE NOBLE COURT</text>
<text x="200" y="557" text-anchor="middle"
  font-family="Georgia,serif" font-size="8" font-weight="400" letter-spacing="4"
  fill="#7a6a5a" opacity="0.84">TARHUALA</text>
</svg>
