<svg xmlns="http://www.w3.org/2000/svg" viewBox="0 0 400 600" width="400" height="600">
<defs>
  <filter id="grain">
    <feTurbulence type="fractalNoise" baseFrequency="0.82" numOctaves="4" seed="11"/>
    <feColorMatrix values="0 0 0 0 0.06  0 0 0 0 0.05  0 0 0 0 0.03  0 0 0 0.44 0"/>
    <feComposite in2="SourceGraphic" operator="in"/>
  </filter>
  <filter id="glow" x="-40%" y="-40%" width="180%" height="180%">
    <feGaussianBlur stdDeviation="8" result="b"/>
    <feMerge><feMergeNode in="b"/><feMergeNode in="SourceGraphic"/></feMerge>
  </filter>
  <filter id="maskhalo" x="-55%" y="-55%" width="210%" height="210%">
    <feGaussianBlur stdDeviation="26" result="b"/>
    <feMerge><feMergeNode in="b"/><feMergeNode in="SourceGraphic"/></feMerge>
  </filter>
  <filter id="eyeshine" x="-60%" y="-60%" width="220%" height="220%">
    <feGaussianBlur stdDeviation="12" result="b"/>
    <feMerge><feMergeNode in="b"/><feMergeNode in="SourceGraphic"/></feMerge>
  </filter>
  <linearGradient id="bg" x1="0" y1="0" x2="0" y2="1">
    <stop offset="0%" stop-color="#100d08"/>
    <stop offset="48%" stop-color="#0a0806"/>
    <stop offset="100%" stop-color="#030202"/>
  </linearGradient>
  <radialGradient id="ivoryAura" cx="50%" cy="40%" r="60%">
    <stop offset="0%" stop-color="#e8dfc0" stop-opacity="0.32"/>
    <stop offset="52%" stop-color="#c0a870" stop-opacity="0.10"/>
    <stop offset="100%" stop-color="#000" stop-opacity="0"/>
  </radialGradient>
  <radialGradient id="maskFace" cx="36%" cy="28%" r="74%">
    <stop offset="0%"   stop-color="#f8f0dc"/>
    <stop offset="28%"  stop-color="#e8d49a"/>
    <stop offset="62%"  stop-color="#c09448"/>
    <stop offset="88%"  stop-color="#7a5828"/>
    <stop offset="100%" stop-color="#3e2610"/>
  </radialGradient>
  <linearGradient id="maskEdgeSheen" x1="0" y1="0" x2="1" y2="0.5">
    <stop offset="0%"   stop-color="#ffffff" stop-opacity="0.22"/>
    <stop offset="40%"  stop-color="#f0c840" stop-opacity="0"/>
    <stop offset="100%" stop-color="#c08010" stop-opacity="0.28"/>
  </linearGradient>
  <linearGradient id="groundFade" x1="0" y1="0" x2="0" y2="1">
    <stop offset="0%" stop-color="#000" stop-opacity="0"/>
    <stop offset="100%" stop-color="#000" stop-opacity="1"/>
  </linearGradient>
  <radialGradient id="vig" cx="50%" cy="42%" r="78%">
    <stop offset="40%" stop-color="#000" stop-opacity="0"/>
    <stop offset="100%" stop-color="#000" stop-opacity="0.94"/>
  </radialGradient>
</defs>

<rect width="400" height="600" fill="url(#bg)"/>
<ellipse cx="200" cy="252" rx="234" ry="220" fill="url(#ivoryAura)"/>

<!-- palace hall — deeply receding arches -->
<path d="M 72 560 Q 72 70 200 46 Q 328 70 328 560" fill="none" stroke="#c8a848" stroke-width="1.2" opacity="0.16"/>
<path d="M 98 560 Q 98 104 200 86 Q 302 104 302 560" fill="none" stroke="#c8a848" stroke-width="0.7" opacity="0.10"/>
<path d="M 122 560 Q 122 134 200 122 Q 278 134 278 560" fill="none" stroke="#c8a848" stroke-width="0.4" opacity="0.07"/>
<path d="M 144 560 Q 144 160 200 152 Q 256 160 256 560" fill="none" stroke="#c8a848" stroke-width="0.3" opacity="0.05"/>
<!-- coffered ceiling -->
<g stroke="#c8a848" stroke-width="0.35" fill="none" opacity="0.06">
  <line x1="0" y1="108" x2="400" y2="108"/>
  <line x1="0" y1="132" x2="400" y2="132"/>
  <line x1="0" y1="156" x2="400" y2="156"/>
</g>
<!-- side curtain masses -->
<path d="M 0 0 Q 44 90 26 200 Q 12 278 30 370 Q 48 444 26 530 L 0 530 Z" fill="#080604" opacity="0.72"/>
<path d="M 400 0 Q 356 90 374 200 Q 388 278 370 370 Q 352 444 374 530 L 400 530 Z" fill="#080604" opacity="0.72"/>
<!-- curtain fold shadows -->
<g stroke="#c8a848" stroke-width="0.6" fill="none" opacity="0.10">
  <path d="M 10 0 Q 36 90 20 200 Q 8 278 24 370"/>
  <path d="M 20 0 Q 48 90 32 200 Q 18 278 36 370"/>
  <path d="M 390 0 Q 364 90 380 200 Q 392 278 376 370"/>
  <path d="M 380 0 Q 352 90 368 200 Q 382 278 364 370"/>
</g>
<!-- tassel fringe -->
<g stroke="#c8a848" stroke-width="1.6" stroke-linecap="round" opacity="0.38">
  <line x1="22" y1="194" x2="17" y2="218"/>
  <line x1="30" y1="198" x2="25" y2="222"/>
  <line x1="38" y1="196" x2="33" y2="220"/>
  <line x1="47" y1="198" x2="42" y2="222"/>
  <line x1="378" y1="194" x2="383" y2="218"/>
  <line x1="370" y1="198" x2="375" y2="222"/>
  <line x1="362" y1="196" x2="367" y2="220"/>
  <line x1="353" y1="198" x2="358" y2="222"/>
</g>
<!-- tassel beads -->
<g fill="#c8a848" opacity="0.50">
  <circle cx="17" cy="220" r="2.5"/><circle cx="25" cy="224" r="2.5"/>
  <circle cx="33" cy="222" r="2.5"/><circle cx="42" cy="224" r="2.5"/>
  <circle cx="383" cy="220" r="2.5"/><circle cx="375" cy="224" r="2.5"/>
  <circle cx="367" cy="222" r="2.5"/><circle cx="358" cy="224" r="2.5"/>
</g>

<!-- ── MASQUERADE MASK — symmetric Venetian half-mask ── -->
<!-- soft halo behind mask -->
<g transform="translate(200 222)" filter="url(#maskhalo)">
  <ellipse rx="142" ry="74" fill="#c8a848" opacity="0.18"/>
</g>

<!-- mask depth shadow -->
<path d="M 70 200 Q 76 174 110 168 Q 154 162 186 176 Q 200 184 214 176 Q 246 162 290 168 Q 324 174 330 200 Q 326 230 296 248 Q 268 264 238 258 Q 220 254 210 268 Q 200 280 190 268 Q 180 254 162 258 Q 132 264 104 248 Q 74 230 70 200 Z"
  fill="#100806" opacity="0.62" transform="translate(4 6)"/>

<!-- mask main body — symmetric butterfly silhouette -->
<path d="M 70 200 Q 76 174 110 168 Q 154 162 186 176 Q 200 184 214 176 Q 246 162 290 168 Q 324 174 330 200 Q 326 230 296 248 Q 268 264 238 258 Q 220 254 210 268 Q 200 280 190 268 Q 180 254 162 258 Q 132 264 104 248 Q 74 230 70 200 Z"
  fill="url(#maskFace)"/>

<!-- porcelain top sheen — kept narrow so it reads as light, not a stripe -->
<path d="M 92 188 Q 130 170 178 178 Q 200 184 222 178 Q 270 170 308 188 Q 286 180 250 182 Q 224 184 200 188 Q 176 184 150 182 Q 114 180 92 188 Z"
  fill="#ffffff" opacity="0.14"/>

<!-- mask border — double gold trim -->
<path d="M 70 200 Q 76 174 110 168 Q 154 162 186 176 Q 200 184 214 176 Q 246 162 290 168 Q 324 174 330 200 Q 326 230 296 248 Q 268 264 238 258 Q 220 254 210 268 Q 200 280 190 268 Q 180 254 162 258 Q 132 264 104 248 Q 74 230 70 200 Z"
  fill="none" stroke="#c8a848" stroke-width="2.4"/>
<path d="M 80 200 Q 86 180 114 174 Q 156 168 186 182 Q 200 190 214 182 Q 244 168 286 174 Q 314 180 320 200 Q 316 226 290 242 Q 266 256 240 250 Q 222 246 212 260 Q 200 272 188 260 Q 178 246 160 250 Q 134 256 110 242 Q 84 226 80 200 Z"
  fill="none" stroke="#dfc070" stroke-width="0.9" opacity="0.55"/>

<!-- eye apertures — kept as deep voids only, no visible eye, no lashes -->
<ellipse cx="156" cy="218" rx="22" ry="12" fill="#040302"/>
<ellipse cx="244" cy="218" rx="22" ry="12" fill="#040302"/>
<!-- gold trim around the apertures -->
<ellipse cx="156" cy="218" rx="22" ry="12" fill="none" stroke="#c8a848" stroke-width="1.6"/>
<ellipse cx="244" cy="218" rx="22" ry="12" fill="none" stroke="#c8a848" stroke-width="1.6"/>
<!-- inner secondary trim, slightly inset -->
<ellipse cx="156" cy="218" rx="18" ry="9" fill="none" stroke="#dfc070" stroke-width="0.6" opacity="0.55"/>
<ellipse cx="244" cy="218" rx="18" ry="9" fill="none" stroke="#dfc070" stroke-width="0.6" opacity="0.55"/>

<!-- centre brow filigree — refined scroll above the bridge -->
<g fill="none" stroke="#c8a848" stroke-width="1.0" opacity="0.68">
  <path d="M 178 186 Q 200 172 222 186"/>
  <path d="M 184 178 Q 200 168 216 178"/>
  <path d="M 192 170 Q 200 164 208 170"/>
</g>
<!-- centerpiece jewel and pearl drop -->
<g opacity="0.85">
  <circle cx="200" cy="166" r="3.6" fill="#c8a848"/>
  <circle cx="200" cy="166" r="2.0" fill="#f5e6b4"/>
  <circle cx="200" cy="165" r="0.7" fill="#ffffff" opacity="0.9"/>
  <line x1="200" y1="170" x2="200" y2="186" stroke="#c8a848" stroke-width="0.7" opacity="0.7"/>
  <circle cx="200" cy="190" r="2.2" fill="#f5e6b4" stroke="#c8a848" stroke-width="0.5"/>
</g>

<!-- side pearl rosettes near the temple wings -->
<g fill="#f5e6b4" stroke="#c8a848" stroke-width="0.5" opacity="0.78">
  <circle cx="100" cy="186" r="2.4"/>
  <circle cx="300" cy="186" r="2.4"/>
</g>
<g fill="#c8a848" opacity="0.6">
  <circle cx="93"  cy="194" r="1.2"/>
  <circle cx="107" cy="194" r="1.2"/>
  <circle cx="293" cy="194" r="1.2"/>
  <circle cx="307" cy="194" r="1.2"/>
</g>

<!-- temple scrollwork — symmetric, threading into the feather base -->
<g fill="none" stroke="#c8a848" stroke-width="1.0" opacity="0.58">
  <path d="M 80 198 Q 64 188 70 174 Q 78 164 92 168"/>
  <path d="M 320 198 Q 336 188 330 174 Q 322 164 308 168"/>
  <!-- soft inner cheek arcs -->
  <path d="M 104 234 Q 124 224 144 232"/>
  <path d="M 296 234 Q 276 224 256 232"/>
</g>

<!-- ── FEATHER PLUMES — sweeping over each temple ── -->
<!-- Left plume cluster: three feathers cascading up-and-back -->
<g transform="translate(80 188)" opacity="0.86">
  <!-- back feather, longest -->
  <g transform="rotate(-32)">
    <path d="M 0 0 Q -3 -34 -1 -78 Q 0 -92 3 -88 Q 6 -76 5 -42 Q 4 -16 2 0 Z"
      fill="url(#maskFace)" opacity="0.78"/>
    <path d="M 0 0 Q -3 -34 -1 -78 Q 0 -92 3 -88 Q 6 -76 5 -42 Q 4 -16 2 0 Z"
      fill="none" stroke="#c8a848" stroke-width="0.5" opacity="0.7"/>
    <!-- barbs -->
    <g stroke="#c8a848" stroke-width="0.4" stroke-linecap="round" opacity="0.6" fill="none">
      <path d="M 1 -16 Q -5 -22 -8 -18"/>   <path d="M 2 -16 Q 7 -22 10 -18"/>
      <path d="M 1 -36 Q -6 -42 -9 -38"/>   <path d="M 2 -36 Q 8 -42 11 -38"/>
      <path d="M 1 -56 Q -6 -62 -9 -58"/>   <path d="M 2 -56 Q 8 -62 11 -58"/>
    </g>
    <line x1="0" y1="-2" x2="2" y2="-86" stroke="#a88828" stroke-width="0.5" opacity="0.7"/>
  </g>
  <!-- mid feather -->
  <g transform="rotate(-18)">
    <path d="M 0 0 Q -2 -28 -1 -62 Q 0 -72 2 -68 Q 4 -56 4 -34 Q 3 -14 1 0 Z"
      fill="#e8d49a" opacity="0.6"/>
    <path d="M 0 0 Q -2 -28 -1 -62 Q 0 -72 2 -68 Q 4 -56 4 -34 Q 3 -14 1 0 Z"
      fill="none" stroke="#c8a848" stroke-width="0.4" opacity="0.6"/>
    <line x1="0" y1="-2" x2="1" y2="-66" stroke="#a88828" stroke-width="0.4" opacity="0.6"/>
  </g>
  <!-- forward feather, shortest -->
  <g transform="rotate(-2)">
    <path d="M 0 0 Q -1.5 -22 -0.6 -48 Q 0 -56 1.5 -54 Q 3 -42 3 -26 Q 2.4 -10 0.8 0 Z"
      fill="#f8f0dc" opacity="0.46"/>
    <path d="M 0 0 Q -1.5 -22 -0.6 -48 Q 0 -56 1.5 -54 Q 3 -42 3 -26 Q 2.4 -10 0.8 0 Z"
      fill="none" stroke="#c8a848" stroke-width="0.35" opacity="0.55"/>
  </g>
</g>

<!-- Right plume cluster — mirror -->
<g transform="translate(320 188) scale(-1 1)" opacity="0.86">
  <g transform="rotate(-32)">
    <path d="M 0 0 Q -3 -34 -1 -78 Q 0 -92 3 -88 Q 6 -76 5 -42 Q 4 -16 2 0 Z"
      fill="url(#maskFace)" opacity="0.78"/>
    <path d="M 0 0 Q -3 -34 -1 -78 Q 0 -92 3 -88 Q 6 -76 5 -42 Q 4 -16 2 0 Z"
      fill="none" stroke="#c8a848" stroke-width="0.5" opacity="0.7"/>
    <g stroke="#c8a848" stroke-width="0.4" stroke-linecap="round" opacity="0.6" fill="none">
      <path d="M 1 -16 Q -5 -22 -8 -18"/>   <path d="M 2 -16 Q 7 -22 10 -18"/>
      <path d="M 1 -36 Q -6 -42 -9 -38"/>   <path d="M 2 -36 Q 8 -42 11 -38"/>
      <path d="M 1 -56 Q -6 -62 -9 -58"/>   <path d="M 2 -56 Q 8 -62 11 -58"/>
    </g>
    <line x1="0" y1="-2" x2="2" y2="-86" stroke="#a88828" stroke-width="0.5" opacity="0.7"/>
  </g>
  <g transform="rotate(-18)">
    <path d="M 0 0 Q -2 -28 -1 -62 Q 0 -72 2 -68 Q 4 -56 4 -34 Q 3 -14 1 0 Z"
      fill="#e8d49a" opacity="0.6"/>
    <line x1="0" y1="-2" x2="1" y2="-66" stroke="#a88828" stroke-width="0.4" opacity="0.6"/>
  </g>
  <g transform="rotate(-2)">
    <path d="M 0 0 Q -1.5 -22 -0.6 -48 Q 0 -56 1.5 -54 Q 3 -42 3 -26 Q 2.4 -10 0.8 0 Z"
      fill="#f8f0dc" opacity="0.46"/>
  </g>
</g>

<!-- mask ribbon ties — symmetric, both sides trail outward -->
<path d="M 76 210 Q 50 218 26 214 Q 12 212 0 218" fill="none" stroke="#c8a848" stroke-width="1.6" opacity="0.50"/>
<path d="M 76 216 Q 50 224 26 222 Q 12 222 0 226" fill="none" stroke="#e8c858" stroke-width="0.8" opacity="0.32"/>
<path d="M 324 210 Q 350 218 374 214 Q 388 212 400 218" fill="none" stroke="#c8a848" stroke-width="1.6" opacity="0.50"/>
<path d="M 324 216 Q 350 224 374 222 Q 388 222 400 226" fill="none" stroke="#e8c858" stroke-width="0.8" opacity="0.32"/>

<!-- small bow knots at the tie points -->
<g opacity="0.40">
  <path d="M 70 208 Q 80 200 88 210 Q 80 220 70 208 Z" fill="#c8a848"/>
  <path d="M 330 208 Q 320 200 312 210 Q 320 220 330 208 Z" fill="#c8a848"/>
</g>

<!-- scattered falling rose petals — unique, not candles -->
<g fill="#c8a848" opacity="0.28">
  <ellipse cx="68"  cy="280" rx="5" ry="3" transform="rotate(-25 68 280)"/>
  <ellipse cx="108" cy="330" rx="4" ry="2.5" transform="rotate(15 108 330)"/>
  <ellipse cx="48"  cy="370" rx="5" ry="3" transform="rotate(-40 48 370)"/>
  <ellipse cx="330" cy="264" rx="4" ry="2.5" transform="rotate(30 330 264)"/>
  <ellipse cx="348" cy="318" rx="5" ry="3" transform="rotate(-20 348 318)"/>
  <ellipse cx="356" cy="388" rx="4" ry="2.5" transform="rotate(50 356 388)"/>
  <ellipse cx="84"  cy="440" rx="4" ry="2.5" transform="rotate(-10 84 440)"/>
  <ellipse cx="316" cy="432" rx="5" ry="3" transform="rotate(35 316 432)"/>
</g>

<!-- floating gold motes -->
<g fill="#d8b860">
  <circle cx="40"  cy="144" r="1.3" opacity="0.58"/><circle cx="78"  cy="108" r="1.6" opacity="0.50"/>
  <circle cx="140" cy="86"  r="1.1" opacity="0.54"/><circle cx="264" cy="84"  r="1.2" opacity="0.54"/>
  <circle cx="328" cy="106" r="1.4" opacity="0.52"/><circle cx="368" cy="142" r="1.1" opacity="0.46"/>
  <circle cx="54"  cy="276" r="1.0" opacity="0.38"/><circle cx="352" cy="270" r="1.0" opacity="0.38"/>
  <circle cx="112" cy="314" r="0.9" opacity="0.32"/><circle cx="292" cy="310" r="0.9" opacity="0.32"/>
  <circle cx="176" cy="60"  r="0.8" opacity="0.42"/><circle cx="230" cy="56"  r="0.9" opacity="0.38"/>
</g>

<!-- kbach filigree above mask -->
<g transform="translate(200 110)" fill="none" stroke="#c8a848" stroke-width="0.90" opacity="0.42">
  <path d="M -94,0 Q -70,-26 -47,0 Q -23,26 0,0 Q 23,-26 47,0 Q 70,26 94,0"/>
  <path d="M -70,-20 Q -47,-38 -23,-20 Q 0,0 23,-20 Q 47,-38 70,-20" opacity="0.58"/>
</g>
<g transform="translate(200 110)" fill="#c8a848" opacity="0.60">
  <circle cx="0"   cy="0" r="4.2"/>
  <circle cx="-47" cy="0" r="2.3"/><circle cx="47"  cy="0" r="2.3"/>
  <circle cx="-94" cy="0" r="1.7"/><circle cx="94"  cy="0" r="1.7"/>
</g>

<!-- marble floor tiles -->
<rect x="0" y="488" width="400" height="112" fill="#040302" opacity="0.98"/>
<g stroke="#221808" stroke-width="0.6" fill="none" opacity="0.32">
  <line x1="0"   y1="498" x2="400" y2="498"/>
  <line x1="0"   y1="512" x2="400" y2="512"/>
  <line x1="0"   y1="526" x2="400" y2="526"/>
  <line x1="80"  y1="488" x2="80"  y2="535"/>
  <line x1="160" y1="488" x2="160" y2="535"/>
  <line x1="240" y1="488" x2="240" y2="535"/>
  <line x1="320" y1="488" x2="320" y2="535"/>
</g>
<!-- marble diagonal inlay -->
<g stroke="#c8a848" stroke-width="0.35" fill="none" opacity="0.12">
  <line x1="40"  y1="488" x2="0"   y2="530"/>
  <line x1="120" y1="488" x2="80"  y2="530"/>
  <line x1="200" y1="488" x2="160" y2="530"/>
  <line x1="280" y1="488" x2="240" y2="530"/>
  <line x1="360" y1="488" x2="320" y2="530"/>
</g>

<rect x="0" y="450" width="400" height="148" fill="url(#groundFade)"/>
<rect width="400" height="600" fill="url(#vig)"/>
<rect width="400" height="600" filter="url(#grain)" opacity="0.48"/>

<!-- CORNER FRAMES -->
<g stroke="#c8a848" stroke-width="1.9" fill="none" stroke-linecap="round">
  <path d="M 14 46 L 14 14 L 46 14"/><path d="M 354 14 L 386 14 L 386 46"/>
  <path d="M 14 554 L 14 586 L 46 586"/><path d="M 386 554 L 386 586 L 354 586"/>
</g>
<g fill="#c8a848" opacity="0.92">
  <circle cx="14" cy="14" r="3.2"/><circle cx="386" cy="14" r="3.2"/>
  <circle cx="14" cy="586" r="3.2"/><circle cx="386" cy="586" r="3.2"/>
</g>
<g fill="#c8a848" opacity="0.46" stroke="#c8a848" stroke-width="0.5">
  <path d="M 22 22 Q 34 22 34 34 Q 22 34 22 22 Z"/><path d="M 378 22 Q 366 22 366 34 Q 378 34 378 22 Z"/>
  <path d="M 22 578 Q 34 578 34 566 Q 22 566 22 578 Z"/><path d="M 378 578 Q 366 578 366 566 Q 378 566 378 578 Z"/>
</g>
<rect x="10" y="10" width="380" height="580" fill="none" stroke="#c8a848" stroke-width="0.6" opacity="0.32"/>

<!-- TITLE -->
<rect x="0" y="456" width="400" height="144" fill="#040302" opacity="0.93"/>
<line x1="28" y1="465" x2="372" y2="465" stroke="#c8a848" stroke-width="0.9" opacity="0.56"/>
<g transform="translate(200 479)" fill="#c8a848" opacity="0.70">
  <path d="M -36,0 Q -18,-6 0,0 Q 18,6 36,0" fill="none" stroke="#c8a848" stroke-width="0.92"/>
  <circle cx="0" cy="0" r="2.8"/>
  <circle cx="-32" cy="0" r="1.4"/><circle cx="32" cy="0" r="1.4"/>
  <path d="M -52,0 L -42,0" stroke-width="0.7"/><path d="M 42,0 L 52,0" stroke-width="0.7"/>
</g>
<text x="200" y="512" text-anchor="middle"
  font-family="Georgia,serif" font-size="26" font-weight="700" letter-spacing="3"
  fill="#f8eece" filter="url(#glow)">MASQUERADE</text>
<text x="200" y="537" text-anchor="middle"
  font-family="Georgia,serif" font-size="11" font-weight="400" letter-spacing="5"
  fill="#c8a848" opacity="0.92">IN THE NOBLE COURT</text>
<text x="200" y="557" text-anchor="middle"
  font-family="Georgia,serif" font-size="8" font-weight="400" letter-spacing="4"
  fill="#7a6a5a" opacity="0.84">TARHUALA</text>
</svg>
