<svg xmlns="http://www.w3.org/2000/svg" viewBox="0 0 400 600" width="400" height="600">
<defs>
  <filter id="grain">
    <feTurbulence type="fractalNoise" baseFrequency="0.88" numOctaves="3" seed="13"/>
    <feColorMatrix values="0 0 0 0 0.06  0 0 0 0 0.04  0 0 0 0 0.01  0 0 0 0.48 0"/>
    <feComposite in2="SourceGraphic" operator="in"/>
  </filter>
  <filter id="glow" x="-40%" y="-40%" width="180%" height="180%">
    <feGaussianBlur stdDeviation="8" result="b"/>
    <feMerge><feMergeNode in="b"/><feMergeNode in="SourceGraphic"/></feMerge>
  </filter>
  <filter id="crownhalo" x="-55%" y="-55%" width="210%" height="210%">
    <feGaussianBlur stdDeviation="20" result="b"/>
    <feMerge><feMergeNode in="b"/><feMergeNode in="SourceGraphic"/></feMerge>
  </filter>
  <linearGradient id="bg" x1="0" y1="0" x2="0" y2="1">
    <stop offset="0%" stop-color="#130a01"/>
    <stop offset="40%" stop-color="#0a0500"/>
    <stop offset="100%" stop-color="#020100"/>
  </linearGradient>
  <radialGradient id="goldAura" cx="50%" cy="40%" r="56%">
    <stop offset="0%" stop-color="#d4a434" stop-opacity="0.42"/>
    <stop offset="52%" stop-color="#6a4008" stop-opacity="0.14"/>
    <stop offset="100%" stop-color="#000" stop-opacity="0"/>
  </radialGradient>
  <linearGradient id="goldMetal" x1="0" y1="0" x2="0" y2="1">
    <stop offset="0%" stop-color="#f8e890"/>
    <stop offset="22%" stop-color="#e8c040"/>
    <stop offset="55%" stop-color="#c89820"/>
    <stop offset="80%" stop-color="#8a6010"/>
    <stop offset="100%" stop-color="#3a2808"/>
  </linearGradient>
  <linearGradient id="goldShine" x1="0" y1="0" x2="1" y2="1">
    <stop offset="0%" stop-color="#fff8d0" stop-opacity="0.65"/>
    <stop offset="50%" stop-color="#f0c040" stop-opacity="0"/>
    <stop offset="100%" stop-color="#c08010" stop-opacity="0.45"/>
  </linearGradient>
  <linearGradient id="scrollFade" x1="0" y1="0" x2="0" y2="1">
    <stop offset="0%" stop-color="#0a0500" stop-opacity="0"/>
    <stop offset="100%" stop-color="#020100" stop-opacity="1"/>
  </linearGradient>
  <radialGradient id="vig" cx="50%" cy="38%" r="76%">
    <stop offset="40%" stop-color="#000" stop-opacity="0"/>
    <stop offset="100%" stop-color="#000" stop-opacity="0.92"/>
  </radialGradient>
</defs>

<rect width="400" height="600" fill="url(#bg)"/>
<ellipse cx="200" cy="248" rx="235" ry="215" fill="url(#goldAura)"/>

<!-- throne arch -->
<path d="M 72 530 Q 72 90 200 68 Q 328 90 328 530" fill="none" stroke="#d4a434" stroke-width="0.9" opacity="0.14"/>
<path d="M 95 530 Q 95 116 200 98 Q 305 116 305 530" fill="none" stroke="#d4a434" stroke-width="0.5" opacity="0.09"/>
<!-- column hints -->
<g stroke="#d4a434" stroke-width="0.5" fill="none" opacity="0.07">
  <line x1="58" y1="0" x2="58" y2="600"/>
  <line x1="118" y1="0" x2="118" y2="600"/>
  <line x1="282" y1="0" x2="282" y2="600"/>
  <line x1="342" y1="0" x2="342" y2="600"/>
</g>

<!-- ── CROWN ── -->
<g transform="translate(200 196)" filter="url(#crownhalo)">
  <ellipse cx="0" cy="18" rx="116" ry="58" fill="#d4a434" opacity="0.14"/>
</g>
<g transform="translate(200 196)" filter="url(#glow)">
  <!-- base band -->
  <rect x="-92" y="32" width="184" height="36" rx="5" fill="url(#goldMetal)"/>
  <rect x="-92" y="32" width="184" height="36" rx="5" fill="url(#goldShine)"/>
  <!-- filigree wave on band -->
  <path d="M -78 50 Q -65 40 -52 50 Q -39 60 -26 50 Q -13 40 0 50 Q 13 40 26 50 Q 39 60 52 50 Q 65 40 78 50"
    stroke="#8a6010" stroke-width="0.8" fill="none" opacity="0.55"/>
  <!-- gem studs on band -->
  <g fill="#1a0900" opacity="0.5">
    <circle cx="-70" cy="50" r="3.5"/><circle cx="-46" cy="50" r="3.5"/>
    <circle cx="-23" cy="50" r="3.5"/><circle cx="0"   cy="50" r="4"/>
    <circle cx="23"  cy="50" r="3.5"/><circle cx="46"  cy="50" r="3.5"/>
    <circle cx="70"  cy="50" r="3.5"/>
  </g>
  <!-- gem highlights -->
  <g fill="#e8c040" opacity="0.4">
    <circle cx="-70" cy="48" r="1.2"/><circle cx="-46" cy="48" r="1.2"/>
    <circle cx="-23" cy="48" r="1.2"/><circle cx="0"   cy="48" r="1.5"/>
    <circle cx="23"  cy="48" r="1.2"/><circle cx="46"  cy="48" r="1.2"/>
    <circle cx="70"  cy="48" r="1.2"/>
  </g>

  <!-- center tall spire -->
  <polygon points="0,-90 -16,32 16,32" fill="url(#goldMetal)"/>
  <polygon points="0,-90 -16,32 16,32" fill="url(#goldShine)"/>
  <!-- center spire cap jewel -->
  <polygon points="0,-102 7,-82 0,-68 -7,-82" fill="#d4a434" filter="url(#glow)"/>
  <polygon points="0,-102 7,-82 0,-68 -7,-82" fill="url(#goldShine)"/>
  <circle cx="0" cy="-86" r="6" fill="#f8e890" opacity="0.92"/>

  <!-- left-mid spires (pair) -->
  <polygon points="-46,-62 -58,32 -34,32" fill="url(#goldMetal)"/>
  <polygon points="-46,-62 -58,32 -34,32" fill="url(#goldShine)" opacity="0.7"/>
  <polygon points="-46,-74 -51,-58 -46,-48 -41,-58" fill="#d4a434"/>
  <circle cx="-46" cy="-60" r="4.5" fill="#f8d060" opacity="0.82"/>

  <polygon points="46,-62 34,32 58,32" fill="url(#goldMetal)"/>
  <polygon points="46,-62 34,32 58,32" fill="url(#goldShine)" opacity="0.7"/>
  <polygon points="46,-74 41,-58 46,-48 51,-58" fill="#d4a434"/>
  <circle cx="46" cy="-60" r="4.5" fill="#f8d060" opacity="0.82"/>

  <!-- outer short spires -->
  <polygon points="-80,-40 -90,32 -70,32" fill="url(#goldMetal)" opacity="0.9"/>
  <polygon points="-80,-50 -84,-38 -80,-30 -76,-38" fill="#d4a434" opacity="0.75"/>
  <polygon points="80,-40 70,32 90,32" fill="url(#goldMetal)" opacity="0.9"/>
  <polygon points="80,-50 76,-38 80,-30 84,-38" fill="#d4a434" opacity="0.75"/>
</g>

<!-- kbach filigree above crown -->
<g transform="translate(200 114)" fill="none" stroke="#d4a434" stroke-width="0.8" opacity="0.38">
  <path d="M -88 0 Q -66 -22 -44 0 Q -22 22 0 0 Q 22 -22 44 0 Q 66 22 88 0"/>
  <path d="M -66 -16 Q -44 -32 -22 -16 Q 0 0 22 -16 Q 44 -32 66 -16" opacity="0.6"/>
</g>
<g transform="translate(200 114)" fill="#d4a434" opacity="0.55">
  <circle cx="0" cy="0" r="3.8"/>
  <circle cx="-44" cy="0" r="2.2"/><circle cx="44" cy="0" r="2.2"/>
  <circle cx="-88" cy="0" r="1.6"/><circle cx="88" cy="0" r="1.6"/>
</g>

<!-- gold dust particles -->
<g fill="#d4a434">
  <circle cx="36"  cy="144" r="1.1" opacity="0.62"/>
  <circle cx="78"  cy="106" r="1.5" opacity="0.52"/>
  <circle cx="142" cy="84"  r="1.0" opacity="0.56"/>
  <circle cx="258" cy="82"  r="1.1" opacity="0.56"/>
  <circle cx="324" cy="104" r="1.3" opacity="0.52"/>
  <circle cx="366" cy="142" r="1.0" opacity="0.46"/>
  <circle cx="55"  cy="268" r="0.9" opacity="0.38"/>
  <circle cx="348" cy="262" r="0.9" opacity="0.38"/>
  <circle cx="108" cy="306" r="0.8" opacity="0.32"/>
  <circle cx="294" cy="304" r="0.8" opacity="0.32"/>
  <circle cx="176" cy="62"  r="0.7" opacity="0.42"/>
  <circle cx="226" cy="58"  r="0.8" opacity="0.38"/>
</g>

<!-- throne base / steps -->
<g>
  <!-- step platform -->
  <rect x="0" y="488" width="400" height="112" fill="#060300" opacity="0.82"/>
  <rect x="56"  y="488" width="288" height="9"  rx="1.5" fill="#0b0700" opacity="0.9"/>
  <rect x="78"  y="476" width="244" height="13" rx="1.5" fill="#0d0800" opacity="0.72"/>
  <rect x="108" y="464" width="184" height="13" rx="1.5" fill="#100900" opacity="0.62"/>

  <!-- LEFT PILLAR — architectural column -->
  <!-- column shaft fill with slight gold tint -->
  <rect x="76" y="340" width="28" height="128" fill="#1a1000" opacity="0.95"/>
  <!-- shaft vertical fluting (3 channels) -->
  <rect x="80" y="340" width="3" height="128" fill="#221600" opacity="0.7"/>
  <rect x="88" y="340" width="3" height="128" fill="#221600" opacity="0.7"/>
  <rect x="96" y="340" width="3" height="128" fill="#221600" opacity="0.7"/>
  <!-- column capital (top piece) -->
  <rect x="66" y="330" width="48" height="12" rx="2" fill="#1c1400" opacity="0.95"/>
  <rect x="62" y="325" width="56" height="7"  rx="1.5" fill="#241a00" opacity="0.88"/>
  <!-- column base (bottom piece) -->
  <rect x="66" y="468" width="48" height="12" rx="2" fill="#1c1400" opacity="0.95"/>
  <rect x="62" y="479" width="56" height="7"  rx="1.5" fill="#241a00" opacity="0.88"/>
  <!-- gold outline — prominent -->
  <rect x="76" y="340" width="28" height="128" fill="none" stroke="#d4a434" stroke-width="1.2" opacity="0.65"/>
  <rect x="66" y="330" width="48" height="12" rx="2" fill="none" stroke="#d4a434" stroke-width="1.0" opacity="0.72"/>
  <rect x="62" y="325" width="56" height="7"  rx="1.5" fill="none" stroke="#d4a434" stroke-width="0.8" opacity="0.55"/>
  <rect x="66" y="468" width="48" height="12" rx="2" fill="none" stroke="#d4a434" stroke-width="1.0" opacity="0.72"/>
  <rect x="62" y="479" width="56" height="7"  rx="1.5" fill="none" stroke="#d4a434" stroke-width="0.8" opacity="0.55"/>
  <!-- gold highlight stripe on shaft -->
  <rect x="76" y="340" width="2" height="128" fill="#d4a434" opacity="0.18"/>
  <!-- capital ornament dots -->
  <g fill="#d4a434" opacity="0.62">
    <circle cx="80"  cy="336" r="2"/><circle cx="90"  cy="336" r="2"/><circle cx="100" cy="336" r="2"/>
  </g>

  <!-- RIGHT PILLAR — architectural column -->
  <rect x="296" y="340" width="28" height="128" fill="#1a1000" opacity="0.95"/>
  <rect x="300" y="340" width="3" height="128" fill="#221600" opacity="0.7"/>
  <rect x="308" y="340" width="3" height="128" fill="#221600" opacity="0.7"/>
  <rect x="316" y="340" width="3" height="128" fill="#221600" opacity="0.7"/>
  <rect x="286" y="330" width="48" height="12" rx="2" fill="#1c1400" opacity="0.95"/>
  <rect x="282" y="325" width="56" height="7"  rx="1.5" fill="#241a00" opacity="0.88"/>
  <rect x="286" y="468" width="48" height="12" rx="2" fill="#1c1400" opacity="0.95"/>
  <rect x="282" y="479" width="56" height="7"  rx="1.5" fill="#241a00" opacity="0.88"/>
  <rect x="296" y="340" width="28" height="128" fill="none" stroke="#d4a434" stroke-width="1.2" opacity="0.65"/>
  <rect x="286" y="330" width="48" height="12" rx="2" fill="none" stroke="#d4a434" stroke-width="1.0" opacity="0.72"/>
  <rect x="282" y="325" width="56" height="7"  rx="1.5" fill="none" stroke="#d4a434" stroke-width="0.8" opacity="0.55"/>
  <rect x="286" y="468" width="48" height="12" rx="2" fill="none" stroke="#d4a434" stroke-width="1.0" opacity="0.72"/>
  <rect x="282" y="479" width="56" height="7"  rx="1.5" fill="none" stroke="#d4a434" stroke-width="0.8" opacity="0.55"/>
  <rect x="320" y="340" width="2" height="128" fill="#d4a434" opacity="0.18"/>
  <g fill="#d4a434" opacity="0.62">
    <circle cx="300" cy="336" r="2"/><circle cx="310" cy="336" r="2"/><circle cx="320" cy="336" r="2"/>
  </g>

  <!-- horizontal lintel beam connecting pillar tops -->
  <rect x="60" y="322" width="280" height="5" rx="1" fill="#1c1400" opacity="0.7"/>
  <rect x="60" y="322" width="280" height="5" rx="1" fill="none" stroke="#d4a434" stroke-width="0.7" opacity="0.5"/>
</g>
<rect x="0" y="452" width="400" height="148" fill="url(#scrollFade)"/>

<!-- vignette + grain -->
<rect width="400" height="600" fill="url(#vig)"/>
<rect width="400" height="600" filter="url(#grain)" opacity="0.52"/>

<!-- CORNER FRAMES -->
<g stroke="#d4a434" stroke-width="2" fill="none" stroke-linecap="round">
  <path d="M 14 52 L 14 14 L 52 14"/>
  <path d="M 348 14 L 386 14 L 386 52"/>
  <path d="M 14 548 L 14 586 L 52 586"/>
  <path d="M 386 548 L 386 586 L 348 586"/>
</g>
<g fill="#d4a434" opacity="0.92">
  <circle cx="14" cy="14" r="3.5"/><circle cx="386" cy="14" r="3.5"/>
  <circle cx="14" cy="586" r="3.5"/><circle cx="386" cy="586" r="3.5"/>
</g>
<g stroke="#d4a434" stroke-width="0.5" fill="none" opacity="0.32">
  <path d="M 22 58 L 22 22 L 58 22"/><path d="M 342 22 L 378 22 L 378 58"/>
  <path d="M 22 542 L 22 578 L 58 578"/><path d="M 378 542 L 378 578 L 342 578"/>
</g>
<rect x="10" y="10" width="380" height="580" fill="none" stroke="#d4a434" stroke-width="0.5" opacity="0.22"/>

<!-- TITLE AREA -->
<rect x="0" y="458" width="400" height="142" fill="#030200" opacity="0.92"/>
<line x1="28" y1="466" x2="372" y2="466" stroke="#d4a434" stroke-width="0.9" opacity="0.58"/>
<g transform="translate(200 481)" fill="#d4a434" opacity="0.68">
  <path d="M -34,0 Q -17,-6 0,0 Q 17,6 34,0" fill="none" stroke="#d4a434" stroke-width="0.9"/>
  <circle cx="0" cy="0" r="2.6"/>
  <circle cx="-30" cy="0" r="1.3"/><circle cx="30" cy="0" r="1.3"/>
  <path d="M -50,0 L -40,0" stroke="#d4a434" stroke-width="0.7"/>
  <path d="M 40,0 L 50,0"  stroke="#d4a434" stroke-width="0.7"/>
</g>
<text x="200" y="514" text-anchor="middle"
  font-family="Georgia,serif" font-size="26" font-weight="700" letter-spacing="2"
  fill="#f5e488" filter="url(#glow)">MONARCH</text>
<text x="200" y="539" text-anchor="middle"
  font-family="Georgia,serif" font-size="11" font-weight="400" letter-spacing="5"
  fill="#d4a434" opacity="0.92">OF DEPRAVITY</text>
<text x="200" y="559" text-anchor="middle"
  font-family="Georgia,serif" font-size="8" font-weight="400" letter-spacing="4"
  fill="#7a6a5a" opacity="0.82">TARHUALA</text>
</svg>